<svg width="20" height="20" viewBox="0 0 383 383" fill="none" xmlns="http://www.w3.org/2000/svg">
<path d="M316.535 0H66.285C29.758 0 0 29.754 0 66.285L0.00390625 316.645C0.00390625 353.172 29.7579 382.93 66.2889 382.93H316.649C353.176 382.93 382.934 353.176 382.934 316.645V66.285C382.821 29.754 353.067 0 316.536 0H316.535ZM366.09 316.53C366.09 343.874 343.883 366.081 316.539 366.081H66.289C38.945 366.081 16.738 343.874 16.738 316.53V66.29C16.738 38.946 38.945 16.739 66.289 16.739L316.649 16.7351C343.993 16.7351 366.192 38.9421 366.192 66.2861V316.536L366.09 316.53Z" fill="black"/>
<path d="M270.595 182.976H199.724L199.728 112.105C199.728 107.507 196.013 103.679 191.302 103.679C186.712 103.679 182.884 107.406 182.884 112.105V182.976H112.005C107.415 182.976 103.587 186.703 103.587 191.402C103.587 195.999 107.302 199.828 112.005 199.828H182.884V270.699C182.884 275.296 186.599 279.124 191.302 279.124C195.9 279.124 199.728 275.398 199.728 270.699V199.828H270.599C275.197 199.828 279.025 196.101 279.025 191.402C279.025 186.804 275.197 182.976 270.595 182.976V182.976Z" fill="black"/>
</svg>
