<svg width="60" height="60" viewBox="0 0 60 60" fill="none" xmlns="http://www.w3.org/2000/svg">
<path d="M16.9085 21.7918C16.893 22.7946 16.967 23.7955 17.1279 24.7618C17.3053 25.5881 17.5188 26.3914 17.7667 27.1653C17.8555 27.3941 17.9039 27.6601 17.9065 27.9328C17.9065 28.2665 17.7867 28.6005 17.5273 28.9339L16.2701 30.3355C16.1185 30.5182 15.9381 30.6226 15.7514 30.6358C15.5241 30.6096 15.3107 30.4431 15.1527 30.1686C14.8837 29.6855 14.6431 29.1603 14.4341 28.6003C14.2346 28.033 14.0348 27.3985 13.8155 26.6313C12.259 29.7009 10.3033 31.2357 7.94847 31.2357C6.27166 31.2357 4.93523 30.4345 3.95743 28.8322C2.97963 27.2299 2.48069 25.0954 2.48069 22.4259C2.48069 19.5894 3.07932 17.2869 4.29667 15.5516C5.51401 13.8164 7.13026 12.9487 9.18566 12.9487C9.89354 12.9583 10.6002 13.0476 11.301 13.2157C12.0393 13.3826 12.7977 13.6495 13.5958 13.9499V11.5138C13.5958 8.97686 13.2764 7.20918 12.6579 6.17455C12.0191 5.14012 10.9418 4.63959 9.40513 4.63959C8.67894 4.63954 7.95536 4.78517 7.24991 5.07336C6.51633 5.36561 5.7961 5.74476 5.09469 6.20794C4.86776 6.37773 4.63445 6.52262 4.39625 6.6417C4.29292 6.69867 4.18551 6.73235 4.07686 6.74185C3.7975 6.74185 3.65777 6.40822 3.65777 5.70741V4.0723C3.65777 3.5382 3.69769 3.13763 3.7975 2.90434C3.94808 2.60016 4.13963 2.35999 4.35644 2.20352C5.15683 1.54128 6.00067 1.03735 6.87086 0.701938C7.8877 0.26563 8.93418 0.0524887 9.98392 0.0678856C12.3591 0.0678856 14.0947 0.968798 15.2123 2.77081C16.3098 4.57283 16.8686 7.30914 16.8686 10.9799V21.7918H16.9085ZM8.80661 26.8641C9.50667 26.8512 10.2008 26.6483 10.862 26.2634C11.5945 25.8397 12.248 25.1032 12.7577 24.127C13.0794 23.5119 13.3116 22.7807 13.4362 21.9906C13.5733 21.0401 13.6403 20.0651 13.6357 19.0874V17.6873C13.0307 17.441 12.4178 17.2516 11.8001 17.12C11.1779 16.9882 10.5513 16.9216 9.92403 16.9206C8.58703 16.9206 7.60923 17.3544 6.95071 18.2559C6.29219 19.1574 5.97291 20.4249 5.97291 22.0934C5.97291 23.6618 6.21246 24.8297 6.71128 25.6307C7.19037 26.465 7.8887 26.8654 8.80661 26.8654V26.8641ZM24.8308 30.4681C24.4716 30.4681 24.2322 30.3679 24.0725 30.1345C23.9128 29.9342 23.7731 29.4668 23.6534 28.833L18.9637 3.03786C18.8727 2.60607 18.8125 2.15792 18.7841 1.70261C18.7841 1.16851 18.9438 0.868272 19.2632 0.868272H21.2188C21.598 0.868272 21.8576 0.968416 21.9971 1.20189C22.1568 1.40218 22.2764 1.86952 22.3963 2.50338L25.7488 24.5943L28.8618 2.50395C28.9616 1.83633 29.0812 1.40275 29.2409 1.20247C29.4006 1.00218 29.68 0.868845 30.0394 0.868845H31.6364C32.0155 0.868845 32.2752 0.968988 32.4349 1.20247C32.5946 1.40275 32.7342 1.87009 32.814 2.50395L35.967 24.8619L39.4182 2.50395C39.5379 1.83633 39.6776 1.40275 39.8174 1.20247C39.9771 1.00218 40.2365 0.868845 40.5957 0.868845H42.4516C42.771 0.868845 42.9505 1.13589 42.9505 1.70319C42.9459 1.88273 42.9325 2.06135 42.9106 2.23728C42.8793 2.52194 42.8326 2.80122 42.7709 3.07163L37.9616 28.8667C37.8419 29.5341 37.7022 29.9679 37.5425 30.1682C37.3169 30.4097 37.0516 30.5264 36.7842 30.5019H35.0679C34.6887 30.5019 34.4291 30.4017 34.2694 30.1682C34.1097 29.9348 33.9701 29.5006 33.8903 28.833L30.7974 7.30914L27.7242 28.7996C27.6243 29.4672 27.5047 29.9008 27.345 30.1349C27.1853 30.3689 26.9059 30.4685 26.5465 30.4685L24.8308 30.4681ZM50.4735 31.369C49.4386 31.3708 48.4071 31.1692 47.4004 30.7683C46.4026 30.3678 45.6243 29.934 45.1055 29.4331C44.7861 29.1328 44.5668 28.799 44.4869 28.4984C44.4092 28.2038 44.3685 27.8857 44.3672 27.5637V25.863C44.3672 25.1622 44.5269 24.8286 44.8262 24.8286C44.9484 24.8293 45.0697 24.8631 45.1854 24.9287C45.3051 24.9955 45.4847 25.129 45.6843 25.2623C46.3892 25.7808 47.125 26.1723 47.8795 26.4303C48.6611 26.6956 49.4566 26.8298 50.2541 26.8309C51.5113 26.8309 52.4892 26.4639 53.1677 25.7297C53.4927 25.4017 53.76 24.9356 53.9424 24.3787C54.1247 23.8219 54.2156 23.1942 54.2057 22.5596C54.2127 22.13 54.1687 21.7024 54.0763 21.3014C53.9838 20.9004 53.8447 20.5341 53.667 20.2237C53.3078 19.5896 52.6289 19.0219 51.6515 18.4878L48.7573 16.9865C47.3006 16.2191 46.2229 15.0845 45.5645 13.5825C44.9221 12.1976 44.5713 10.4965 44.5668 8.74377C44.5506 7.45169 44.7363 6.1749 45.1055 5.03959C45.462 3.96601 45.9521 3.03289 46.5428 2.30328C47.1648 1.51589 47.8684 0.927406 48.6182 0.56746C49.4351 0.174266 50.282 -0.0165417 51.132 0.00112307C51.579 -0.00429522 52.0256 0.0403128 52.469 0.134648C52.928 0.234792 53.3474 0.368317 53.7661 0.501651C54.1653 0.668557 54.5444 0.835273 54.9036 1.03575C55.1948 1.18638 55.4757 1.3877 55.7418 1.63642C55.9768 1.83457 56.1815 2.11996 56.3404 2.47076C56.4702 2.79549 56.5332 3.18203 56.52 3.57196V5.14031C56.52 5.84112 56.3603 6.20851 56.0609 6.20851C55.9012 6.20851 55.6418 6.07498 55.3026 5.80793C54.1651 4.94028 52.888 4.50645 51.4711 4.50645C50.3337 4.50645 49.4357 4.80669 48.8171 5.44112C48.1985 6.07556 47.8792 7.04342 47.8792 8.4111C47.8738 8.85421 47.9243 9.29427 48.0274 9.70254C48.1306 10.1108 48.2841 10.4781 48.4779 10.7804C48.8771 11.4145 49.6154 12.0485 50.673 12.6158L53.5067 14.1166C54.944 14.8842 55.9812 15.952 56.5998 17.3201C57.2089 18.6625 57.532 20.307 57.5177 21.9919C57.528 23.3323 57.3503 24.658 56.9989 25.8628C56.6448 27.005 56.148 28.0065 55.5422 28.7994C54.8833 29.657 54.131 30.2919 53.327 30.6688C52.4027 31.1442 51.4404 31.3805 50.4734 31.3696L50.4735 31.369Z" fill="#252F3E"/>
<path d="M54.2451 47.5864C47.6797 55.6953 38.141 60 29.9394 60C18.445 60.0008 8.08808 52.8929 0.265804 41.0799C-0.352792 40.1452 0.205918 38.8775 0.944286 39.6111C9.40535 47.8202 19.8421 52.7919 30.6379 52.7919C37.9217 52.7919 45.9237 50.255 53.2873 45.05C54.3849 44.2156 55.3228 46.2517 54.2455 47.587L54.2451 47.5864Z" fill="#FF9900"/>
<path d="M56.979 42.3811C56.1408 40.5791 51.4313 41.5136 49.2961 41.9474C48.6573 42.0809 48.5577 41.1462 49.1364 40.4458C52.888 36.041 59.0542 37.3089 59.7726 38.7773C60.4913 40.2789 59.5731 50.5902 56.0609 55.5291C55.5222 56.2967 55.0033 55.8961 55.2427 54.8951C56.0411 51.5913 57.8171 44.1498 56.979 42.3811Z" fill="#FF9900"/>
</svg>
