<svg width="670" height="656" viewBox="0 0 670 656" fill="none" xmlns="http://www.w3.org/2000/svg">
<rect width="670" height="656" fill="white"/>
<path d="M281.4 104.96L254.6 157.44H179.562C158.774 157.44 142.043 173.825 142.043 194.175V383.103C142.043 403.457 158.778 419.838 179.562 419.838H490.442C511.23 419.838 527.961 403.453 527.961 383.103V194.175C527.961 173.821 511.226 157.44 490.442 157.44H415.404L388.604 104.96H281.4ZM335 204.672C382.237 204.672 420.762 242.392 420.762 288.642C420.762 334.892 382.241 372.612 335 372.612C287.763 372.612 249.238 334.892 249.238 288.642C249.238 242.392 287.763 204.672 335 204.672V204.672ZM335 225.662C299.35 225.662 270.681 253.732 270.681 288.637C270.681 323.542 299.35 351.612 335 351.612C370.65 351.612 399.319 323.542 399.319 288.637C399.319 253.732 370.65 225.662 335 225.662Z" fill="black"/>
</svg>

