<svg width="768" height="700" viewBox="0 0 768 700" fill="none" xmlns="http://www.w3.org/2000/svg">
<rect width="768" height="700" fill="white"/>
<path d="M324.597 169L296.597 225H218.199C196.48 225 179 242.484 179 264.199V465.799C179 487.518 196.484 504.998 218.199 504.998H542.999C564.718 504.998 582.198 487.514 582.198 465.799V264.199C582.198 242.48 564.714 225 542.999 225H464.601L436.601 169H324.597ZM380.597 275.4C429.949 275.4 470.199 315.65 470.199 365.002C470.199 414.354 429.953 454.604 380.597 454.604C331.245 454.604 290.995 414.354 290.995 365.002C290.995 315.65 331.245 275.4 380.597 275.4V275.4ZM380.597 297.798C343.351 297.798 313.398 327.751 313.398 364.997C313.398 402.243 343.351 432.196 380.597 432.196C417.843 432.196 447.796 402.243 447.796 364.997C447.796 327.751 417.843 297.798 380.597 297.798Z" fill="black"/>
</svg>

