<svg width="20" height="20" viewBox="0 0 505 476" fill="none" xmlns="http://www.w3.org/2000/svg">
<path d="M483.86 475.13H322.9C311.505 475.13 302.24 465.861 302.24 454.47L302.244 317.01C299.076 310.42 285.791 287.381 253.33 287.381H251.908C219.439 287.381 206.162 310.42 202.865 317.486L202.994 454.476C202.994 465.867 193.724 475.136 182.334 475.136L21.3639 475.132C9.97291 475.132 0.703918 465.863 0.703918 454.472V252.192C0.703918 246.677 2.84842 241.489 6.74692 237.594L238.007 6.33412C246.054 -1.71278 259.159 -1.72448 267.218 6.33021L498.468 237.59C502.37 241.5 504.515 246.684 504.515 252.195V454.475C504.511 465.866 495.249 475.131 483.859 475.131L483.86 475.13Z" fill="black"/>
</svg>
