<svg width="20" height="20" viewBox="0 0 499 490" fill="none" xmlns="http://www.w3.org/2000/svg">
<path d="M297.75 463.75H35.25C25.9688 463.742 17.074 460.051 10.512 453.488C3.95 446.925 0.258 438.031 0.25 428.75V183.75C0.265625 169.832 5.8008 156.484 15.645 146.645C25.4848 136.801 38.833 131.266 52.75 131.25H280.25C294.168 131.266 307.516 136.801 317.355 146.645C327.199 156.485 332.734 169.833 332.75 183.75V428.75C332.742 438.031 329.051 446.926 322.488 453.488C315.925 460.05 307.031 463.742 297.75 463.75ZM52.75 148.75C43.4688 148.762 34.574 152.453 28.012 159.012C21.4534 165.574 17.762 174.469 17.75 183.75V428.75C17.7539 433.391 19.6016 437.836 22.8828 441.117C26.164 444.398 30.6094 446.246 35.2498 446.25H297.75C302.39 446.246 306.836 444.398 310.117 441.117C313.398 437.836 315.246 433.39 315.25 428.75V183.75C315.238 174.469 311.547 165.574 304.988 159.012C298.425 152.453 289.531 148.762 280.25 148.75H52.75Z" fill="black"/>
<path d="M280.25 218.75H245.25C240.609 218.746 236.16 216.898 232.879 213.621C229.602 210.34 227.754 205.891 227.75 201.25V183.75C227.754 179.11 229.602 174.66 232.879 171.379C236.16 168.102 240.609 166.254 245.25 166.25H280.25C284.891 166.254 289.34 168.102 292.621 171.379C295.898 174.66 297.746 179.11 297.75 183.75V201.25C297.746 205.891 295.898 210.34 292.621 213.621C289.34 216.898 284.891 218.746 280.25 218.75ZM245.25 183.75V201.25H280.262L280.25 183.75H245.25Z" fill="black"/>
<path d="M9 236.25H131.5V253.75H9V236.25Z" fill="black"/>
<path d="M201.5 236.25H324V253.75H201.5V236.25Z" fill="black"/>
<path d="M9 367.5H324V385H9V367.5Z" fill="black"/>
<path d="M166.5 385C145.613 385 125.582 376.703 110.816 361.934C96.046 347.168 87.75 327.137 87.75 306.25C87.75 285.363 96.0469 265.332 110.816 250.566C125.582 235.796 145.613 227.5 166.5 227.5C187.387 227.5 207.418 235.797 222.184 250.566C236.954 265.332 245.25 285.363 245.25 306.25C245.227 327.129 236.922 347.145 222.16 361.91C207.394 376.672 187.379 384.976 166.5 385V385ZM166.5 245C150.254 245 134.676 251.453 123.191 262.941C111.703 274.425 105.25 290.003 105.25 306.25C105.25 322.497 111.703 338.074 123.191 349.559C134.675 361.047 150.253 367.5 166.5 367.5C182.747 367.5 198.324 361.047 209.809 349.559C221.297 338.075 227.75 322.497 227.75 306.25C227.73 290.012 221.273 274.441 209.789 262.961C198.309 251.477 182.738 245.02 166.5 245V245Z" fill="black"/>
<path d="M166.5 350C154.898 350 143.77 345.391 135.562 337.188C127.359 328.981 122.75 317.852 122.75 306.25C122.75 294.648 127.359 283.52 135.562 275.312C143.769 267.109 154.898 262.5 166.5 262.5C178.102 262.5 189.23 267.109 197.438 275.312C205.641 283.519 210.25 294.648 210.25 306.25C210.238 317.848 205.621 328.969 197.422 337.172C189.219 345.371 178.098 349.988 166.5 350ZM166.5 280C159.539 280 152.859 282.766 147.938 287.688C143.017 292.609 140.251 299.29 140.251 306.25C140.251 313.21 143.016 319.89 147.938 324.811C152.86 329.732 159.54 332.499 166.5 332.499C173.46 332.499 180.141 329.733 185.062 324.811C189.983 319.89 192.75 313.21 192.75 306.25C192.742 299.289 189.972 292.616 185.054 287.694C180.132 282.776 173.46 280.007 166.499 279.999L166.5 280Z" fill="black"/>
<path d="M490.25 297.5H350.25V280H481.5V35H219V96.25H201.5V26.25C201.5 21.418 205.418 17.5 210.25 17.5H490.25C492.57 17.5 494.797 18.4219 496.438 20.0625C498.078 21.7031 499 23.9297 499 26.25V288.75C499 291.07 498.078 293.297 496.438 294.938C494.797 296.578 492.57 297.5 490.25 297.5Z" fill="black"/>
<path d="M350.25 227.5H490.25V245H350.25V227.5Z" fill="black"/>
<path d="M490.25 210C487.77 210.004 485.402 208.949 483.742 207.102L411.015 126.297L361.921 173.117V173.121C358.413 176.367 352.948 176.195 349.648 172.734C346.351 169.273 346.437 163.808 349.847 160.457L405.456 107.418C407.163 105.777 409.464 104.902 411.828 105C414.191 105.094 416.417 106.137 417.999 107.894L496.749 195.394C499.062 197.961 499.648 201.648 498.242 204.808C496.839 207.965 493.706 210 490.249 210L490.25 210Z" fill="black"/>
<path d="M335.5 130.45C332.117 130.45 329.035 128.493 327.59 125.431C326.148 122.368 326.602 118.747 328.754 116.134C331.356 113.009 332.77 109.067 332.75 105.005C332.75 98.7507 329.414 92.9736 324 89.8486C318.586 86.7236 311.914 86.7236 306.5 89.8486C301.086 92.9736 297.75 98.7509 297.75 105.005C297.75 109.837 293.832 113.755 289 113.755C284.168 113.755 280.25 109.837 280.25 105.005C280.25 93.6136 285.793 82.9346 295.113 76.3796C304.429 69.8249 316.355 68.2116 327.078 72.0632C337.801 75.9148 345.976 84.7392 348.996 95.7272C352.019 106.711 349.504 118.477 342.258 127.266C340.594 129.286 338.117 130.454 335.5 130.45L335.5 130.45Z" fill="black"/>
<path d="M450.88 446.25C448.56 446.254 446.333 445.328 444.693 443.688L422.818 421.812C421.177 420.172 420.255 417.945 420.255 415.625C420.255 413.305 421.177 411.078 422.818 409.438L444.693 387.562C446.333 385.922 448.56 385 450.88 385C453.2 385 455.427 385.922 457.068 387.562L478.943 409.438C480.583 411.078 481.505 413.305 481.505 415.625C481.505 417.945 480.583 420.172 478.943 421.812L457.068 443.688C455.427 445.328 453.2 446.254 450.88 446.25ZM441.38 415.625L450.88 425.125L460.38 415.625L450.88 406.125L441.38 415.625Z" fill="black"/>
<path d="M393.66 481.25C393.66 486.082 389.742 490 384.91 490C380.078 490 376.16 486.082 376.16 481.25C376.16 476.418 380.078 472.5 384.91 472.5C389.742 472.5 393.66 476.418 393.66 481.25Z" fill="black"/>
<path d="M499 350C499 354.832 495.082 358.75 490.25 358.75C485.418 358.75 481.5 354.832 481.5 350C481.5 345.168 485.418 341.25 490.25 341.25C495.082 341.25 499 345.168 499 350Z" fill="black"/>
<path d="M52.75 61.25C45.7891 61.25 39.109 58.4844 34.188 53.5625C29.267 48.6406 26.5005 41.9605 26.5005 35.0005C26.5005 28.0405 29.2661 21.3595 34.188 16.4385C39.1099 11.5175 45.79 8.75098 52.75 8.75098C59.71 8.75098 66.391 11.5166 71.312 16.4385C76.233 21.3604 78.9995 28.0405 78.9995 35.0005C78.9917 41.9614 76.2222 48.6335 71.3042 53.5555C66.3823 58.4735 59.7102 61.243 52.7492 61.2508L52.75 61.25ZM52.75 26.25C49.2109 26.25 46.0195 28.3828 44.668 31.6523C43.3125 34.9218 44.0586 38.6835 46.5625 41.1875C49.0664 43.6915 52.8281 44.4375 56.0977 43.082C59.3672 41.7304 61.5 38.539 61.5 35C61.4922 30.1719 57.5781 26.2578 52.75 26.25Z" fill="black"/>
<path d="M140.25 8.75C140.25 13.582 136.332 17.5 131.5 17.5C126.668 17.5 122.75 13.582 122.75 8.75C122.75 3.918 126.668 0 131.5 0C136.332 0 140.25 3.918 140.25 8.75Z" fill="black"/>
<path d="M96.5 96.25C96.5 101.082 92.582 105 87.75 105C82.918 105 79 101.082 79 96.25C79 91.418 82.918 87.5 87.75 87.5C92.582 87.5 96.5 91.418 96.5 96.25Z" fill="black"/>
</svg>
