<svg width="40" height="40" viewBox="0 0 700 700" fill="none" xmlns="http://www.w3.org/2000/svg">
<path d="M494.48 159.6C477.679 142.799 455.839 133.838 431.761 133.838C407.683 133.838 385.839 142.799 369.042 159.6L349.999 178.639L330.397 159.037C313.596 142.236 291.756 133.275 267.678 133.275C243.6 133.275 221.756 142.236 204.959 159.037C170.24 193.756 170.24 249.756 204.959 283.917L345.519 423.917C346.64 425.038 347.757 425.597 349.441 425.597C351.121 425.597 352.242 425.038 353.363 423.917L493.923 283.917C528.642 249.761 528.642 193.761 494.482 159.597L494.48 159.6Z" fill="white"/>
</svg>
