<svg width="40" height="40" viewBox="0 0 700 700" fill="none" xmlns="http://www.w3.org/2000/svg">
<path d="M349.83 124.35C291.572 124.417 238.97 157.51 212.36 208.944C152.95 209.237 104.66 257.577 104.66 317.054C104.66 376.714 153.211 425.264 212.87 425.264C231.421 425.26 249.108 419.022 265.233 409.987C290.46 426.389 319.674 435.655 349.827 435.655C349.839 435.659 349.851 435.659 349.862 435.655C379.686 435.596 408.491 426.3 433.499 410.19C449.851 419.628 468.151 425.225 487.093 425.264C487.105 425.268 487.117 425.268 487.128 425.264C546.788 425.264 595.338 376.713 595.338 317.054C595.338 257.452 546.873 208.974 487.298 208.874C460.677 157.456 408.075 124.417 349.828 124.351L349.83 124.35ZM349.83 141.85C403.416 141.913 452.07 172.924 474.79 221.455V221.451C476.306 224.686 479.634 226.674 483.2 226.475C484.517 226.404 485.814 226.35 487.13 226.338C537.333 226.338 577.845 266.85 577.841 317.053C577.841 367.244 537.349 407.748 487.161 407.764C469.774 407.729 452.755 402.701 438.145 393.272L438.149 393.276C435.168 391.35 431.321 391.42 428.411 393.444C405.345 409.479 377.923 418.092 349.833 418.155C321.79 418.155 294.399 409.612 271.321 393.682L271.317 393.686C268.422 391.69 264.61 391.619 261.645 393.514C247.071 402.815 230.157 407.764 212.872 407.768C162.669 407.768 122.157 367.256 122.161 317.057C122.161 266.866 162.653 226.362 212.841 226.342C213.989 226.381 215.146 226.432 216.294 226.514L216.29 226.51C219.903 226.768 223.302 224.768 224.833 221.486C247.54 172.92 296.22 141.908 349.833 141.849L349.83 141.85Z" fill="white"/>
<path d="M323.75 323.75C318.918 323.75 315 327.668 315 332.5C315 351.727 330.773 367.5 350 367.5C369.227 367.5 385 351.727 385 332.5C385 327.668 381.082 323.75 376.25 323.75H323.75Z" fill="white"/>
<path d="M287.75 250.05C282.051 250.05 276.773 252.749 273.355 257.284C270.308 261.331 269.179 266.195 269.394 270.764C269.609 275.264 271.07 279.272 272.746 282.795C277.367 292.502 285.301 301.022 294.984 305.033C296.531 305.674 298.46 305.674 300.011 305.033C309.695 301.022 317.628 292.502 322.249 282.795C323.925 279.272 325.386 275.264 325.601 270.764C325.819 266.194 324.687 261.331 321.64 257.284C318.222 252.749 312.944 250.05 307.245 250.05C303.389 250.05 300.53 252.73 297.495 254.925C294.464 252.73 291.6 250.05 287.745 250.05H287.75Z" fill="white"/>
<path d="M392.75 248.88C387.051 248.88 381.773 251.579 378.355 256.115C375.308 260.161 374.179 265.025 374.394 269.595C374.609 274.095 376.07 278.102 377.746 281.626C382.367 291.333 390.301 299.853 399.984 303.864C401.531 304.504 403.46 304.504 405.011 303.864C414.695 299.852 422.628 291.333 427.249 281.626C428.925 278.102 430.386 274.094 430.601 269.595C430.819 265.024 429.687 260.161 426.64 256.115C423.222 251.579 417.944 248.88 412.245 248.88C408.389 248.88 405.53 251.56 402.495 253.755C399.464 251.56 396.6 248.88 392.745 248.88H392.75Z" fill="white"/>
</svg>
