<svg width="20" height="20" viewBox="0 0 587 559" fill="none" xmlns="http://www.w3.org/2000/svg">
<path d="M395.34 70H78.66C50.172 70 27 93.172 27 121.66V438.34C27 466.828 50.172 490 78.66 490H395.34C423.828 490 447 466.828 447 438.34V121.66C447 93.172 423.828 70 395.34 70V70ZM374.496 297.5H254.496V417.5C254.496 427.176 246.656 435 236.996 435C227.336 435 219.496 427.176 219.496 417.5V297.5H99.496C89.8358 297.5 81.996 289.676 81.996 280C81.996 270.324 89.8358 262.5 99.496 262.5H219.496V142.5C219.496 132.824 227.336 125 236.996 125C246.656 125 254.496 132.824 254.496 142.5V262.5H374.496C384.156 262.5 391.996 270.324 391.996 280C391.996 289.676 384.156 297.5 374.496 297.5Z" fill="black"/>
</svg>
