<svg width="20" height="20" viewBox="0 0 547 640" fill="none" xmlns="http://www.w3.org/2000/svg">
<path d="M337 -45.781H57C43.727 -45.781 32.938 -34.992 32.938 -21.719V461.721C32.938 474.994 43.727 485.783 57 485.783H337C350.273 485.783 361.062 474.994 361.062 461.721V-21.719C361.062 -34.992 350.273 -45.781 337 -45.781V-45.781ZM57 -32.656H337C343.027 -32.656 347.938 -27.7458 347.938 -21.718V11.094H46.058V-21.718C46.058 -27.7453 50.9682 -32.656 56.996 -32.656H57ZM347.94 402.654H291.065V295.464C291.065 267.718 268.499 245.152 240.753 245.152H231.819C242.96 235.422 250.046 221.152 250.046 205.226C250.046 175.976 226.245 152.175 196.995 152.175C167.745 152.175 143.944 175.976 143.944 205.226C143.944 221.144 151.03 235.414 162.171 245.152H153.253C125.515 245.152 102.941 267.718 102.941 295.464V402.654H46.0664V24.214H347.946L347.94 402.654ZM116.06 402.654V295.464C116.06 274.952 132.748 258.276 153.248 258.276H240.748C261.26 258.276 277.936 274.952 277.936 295.464V402.654H116.06ZM157.08 205.234C157.08 183.218 174.99 165.308 197.006 165.308C219.022 165.308 236.932 183.218 236.932 205.234C236.932 227.25 219.014 245.152 196.998 245.152C174.982 245.152 157.08 227.242 157.08 205.234V205.234ZM337 472.654H57C50.9727 472.654 46.062 467.744 46.062 461.716V415.778H347.942V461.716C347.942 467.743 343.032 472.654 337.004 472.654H337Z" fill="black"/>
<path d="M223.52 437.66H170.469C166.848 437.66 163.906 440.601 163.906 444.223C163.906 447.844 166.848 450.785 170.469 450.785H223.52C227.141 450.785 230.082 447.844 230.082 444.223C230.082 440.601 227.145 437.66 223.52 437.66Z" fill="black"/>
</svg>
