<svg width="100" height="100" viewBox="0 0 487 493" fill="none" xmlns="http://www.w3.org/2000/svg">
<path fill-rule="evenodd" clip-rule="evenodd" d="M472.12 153.71C440.222 53.53 307.85 -28.19 205.06 10.31C195.025 14.0678 199.369 30.314 209.525 26.509C298.388 -6.764 404.265 56.638 446.275 135.239C468.318 176.489 469.423 230.266 466.228 275.879C462.743 325.512 448.119 374.5 415.767 413.099C383.677 451.384 339.494 466.689 291.177 472.134C245.661 477.267 197.579 479.115 153.817 463.509C68.5358 433.095 11.6968 348.379 17.3068 257.689C23.4943 157.669 100.272 66.279 188.017 24.129C197.759 19.4454 189.247 4.961 179.54 9.625C91.0482 52.129 14.7202 142.275 1.96019 241.655C-10.2388 336.589 41.4992 430.365 128.04 470.915C174.892 492.864 225.126 494.591 275.93 490.368C326.301 486.18 374.875 475.692 412.98 440.36C486.16 372.508 501.355 245.56 472.105 153.7" fill="white"/>
<path fill-rule="evenodd" clip-rule="evenodd" d="M138.11 161.7C134.891 158.481 129.446 158.481 126.231 161.7L123.481 164.45C120.274 167.653 120.274 173.118 123.481 176.329C126.704 179.548 132.145 179.548 135.36 176.329L138.11 173.579C141.317 170.368 141.317 164.911 138.11 161.7Z" fill="white"/>
<path fill-rule="evenodd" clip-rule="evenodd" d="M310.77 186.29C315.165 186.29 319.372 182.427 319.168 177.892C318.965 173.337 315.477 169.489 310.77 169.489H309.395C305.001 169.489 300.79 173.353 300.997 177.892C301.2 182.442 304.688 186.29 309.395 186.29H310.77Z" fill="white"/>
<path fill-rule="evenodd" clip-rule="evenodd" d="M228.92 258.61C199.178 254.915 168.139 268.153 150.397 292.356C129.1 321.415 129.151 359.192 131.717 393.506C132.518 404.225 149.322 404.307 148.514 393.506C144.756 343.233 154.19 272.546 220.866 274.736C284.647 276.841 305.428 350.427 295.487 402.256C293.46 412.818 309.651 417.346 311.69 406.721C323.292 346.225 299.592 267.391 228.92 258.611" fill="white"/>
</svg>
