<svg width="20" height="20" viewBox="0 0 700 700" fill="none" xmlns="http://www.w3.org/2000/svg">
<path fill-rule="evenodd" clip-rule="evenodd" d="M546.7 224C516.157 224 491.395 248.762 491.395 279.305C491.395 309.856 516.157 334.61 546.7 334.61C577.243 334.61 602.005 309.856 602.005 279.305C602.005 248.762 577.243 224 546.7 224ZM350 224C319.457 224 294.695 248.762 294.695 279.305C294.695 309.856 319.457 334.61 350 334.61C380.547 334.61 405.305 309.856 405.305 279.305C405.305 248.762 380.547 224 350 224ZM208.62 279.305C208.62 309.856 183.858 334.61 153.308 334.61C122.765 334.61 98.003 309.856 98.003 279.305C98.003 248.762 122.765 224 153.308 224C183.859 224 208.62 248.762 208.62 279.305Z" fill="black"/>
</svg>
