<svg width="20" height="20" viewBox="0 0 505 111" fill="none" xmlns="http://www.w3.org/2000/svg">
<path fill-rule="evenodd" clip-rule="evenodd" d="M448.697 0C418.154 0 393.392 24.762 393.392 55.305C393.392 85.856 418.154 110.61 448.697 110.61C479.24 110.61 504.002 85.856 504.002 55.305C504.002 24.762 479.24 0 448.697 0ZM251.997 0C221.454 0 196.692 24.762 196.692 55.305C196.692 85.856 221.454 110.61 251.997 110.61C282.544 110.61 307.302 85.856 307.302 55.305C307.302 24.762 282.544 0 251.997 0ZM110.617 55.305C110.617 85.856 85.855 110.61 55.305 110.61C24.762 110.61 0 85.856 0 55.305C0 24.762 24.762 0 55.305 0C85.856 0 110.617 24.762 110.617 55.305Z" fill="white"/>
</svg>
